#!OML:ASF E:/inclinewalkrobotboard/Project1/Captureday1/Session1/subject1.ASF
:FULLY-SPECIFIED
:DEGREES
88
root 0 0 0 -1.139427785047625 -2.858865455987843 -0.8476334260046288
lowerback 10.959989816666617 0.5673624408780402 0.4705011640977177
upperback -1.1518793698898788 0.8843626371675879 0.8968070366669791
thorax -7.338602813494054 0.4069639751863812 0.43257775120566544
lowerneck -13.330553777332234 -1.3761216047356513 0.2618931671002281
upperneck 19.049803724254303 -1.3511185200159537 -2.409240810475087
head 8.198854478435692 -0.7881720980684896 -1.0275634446109367
rclavicle -4.693863844028288E-16 -2.979596210605353E-16
rhumerus -10.538779644929377 -5.938953089660273 -66.52009691755377
rradius 44.11237724852808
rwrist 12.59346666973803
rhand -24.015544498640505 -7.537761083569215
rfingers 7.125020000000128
rthumb 2.687575189741328 -37.65192771194059
lclavicle -9.821295700867174E-16 -8.000270754246338E-16
lhumerus -11.702363189400245 -4.26930970459294 68.20084413370317
lradius 44.23472778168649
lwrist -5.475355574326424
lhand -33.5558654849726 -12.04889129120499
lfingers 7.125020000000127
lthumb -6.838144024964034 17.015769067950515
rfemur 14.115638651787297 8.31038514645793 37.818392562279044
rtibia 33.78417465999481
rfoot -14.255488540538837 -1.2672527754698297
rtoes 7.680832229577475
lfemur -34.16010387338691 -0.3376796440850653 -8.38025676771807
ltibia 45.97720254666338
lfoot 2.427926332435762 -1.6287111629329563
ltoes -0.5441839647444571
89
root 0 0 0 -1.1343912064132913 -2.8606745324397416 -0.8419670063060316
lowerback 10.962123298203572 0.5682300763480004 0.4693197832250424
upperback -1.158912262445951 0.8848232249845995 0.8934924123578535
thorax -7.347188735375204 0.4073013892692209 0.42984623131244803
lowerneck -13.315881583374683 -1.3696677320735329 0.27068919157492394
upperneck 19.049475746009243 -1.3408780978336274 -2.4210874639434246
head 8.196055345329444 -0.7838695482100639 -1.0320988381332175
rclavicle -4.68423324886706E-16 -3.0102843449597563E-16
rhumerus -10.46858922846684 -5.890367326332542 -66.47790572454235
rradius 44.176791532106606
rwrist 12.625636783365199
rhand -24.038809659579048 -7.648143271145001
rfingers 7.125020000000128
rthumb 2.6642029924699515 -37.76099669771487
lclavicle -9.865253916579051E-16 -7.965420823550439E-16
lhumerus -11.775666855575803 -4.250588566739698 68.25309069438067
lradius 44.17503033638678
lwrist -5.436474314414304
lhand -33.53074557331499 -11.91611422061503
lfingers 7.125020000000127
lthumb -6.813818904456229 17.148620958743138
rfemur 14.219625838703386 8.063231443617559 37.73478795247901
rtibia 35.51407805557519
rfoot -13.701495182627927 -1.0538504205664285
rtoes 8.005666070790625
lfemur -34.946595848928574 -1.4982702325390642 -8.817163432630673
ltibia 37.38392544628855
lfoot -0.7955390478389877 1.68394090130914
ltoes 0.6535161298972803
90
root 0 0 0 -1.1372770115582522 -2.859977944727508 -0.845302789742541
lowerback 10.960815378400097 0.5678668528731049 0.4697192594531543
upperback -1.1548255861214618 0.8841573227036278 0.8951999363104115
thorax -7.341418970022987 0.40719015841430495 0.4312096685072665
lowerneck -13.324915351470349 -1.373527903429315 0.26530808461470207
upperneck 19.049325257895134 -1.3468602350199792 -2.413629700550277
head 8.197532422946438 -0.7862658472638978 -1.0293143025710076
rclavicle -4.643246673165901E-16 -2.9294961994184737E-16
rhumerus -10.622761897149545 -5.99095323013611 -66.57379647547393
rradius 44.030848212146886
rwrist 12.552824341315834
rhand -23.987108002033242 -7.394584723176893
rfingers 7.125020000000129
rthumb 2.715684146201295 -37.51157076987656
lclavicle -9.878900754079142E-16 -7.93487986718147E-16
lhumerus -12.007981874829758 -4.194380369627725 68.41825724248015
lradius 43.98721515544139
lwrist -5.309048841530468
lhand -33.45083037904647 -11.48896438345196
lfingers 7.125020000000128
lthumb -6.737798426928597 17.5760583955244
rfemur 13.804727880981975 7.654750543290225 37.38844993597216
rtibia 38.04939425330419
rfoot -12.717374274138676 -0.837479717482239
rtoes 8.449849269680968
lfemur -31.415450338477733 -3.2009484948589226 -11.187350729345457
ltibia 25.118893395890893
lfoot -5.621655939940975 5.068091039313476
ltoes 1.5253806630859383
91
root 0 0 0 -1.143930444502013 -2.8579304989351124 -0.8526322305562692
lowerback 10.957977450473926 0.5669104074393067 0.47110862276465604
upperback -1.1455951691060697 0.8833408858916032 0.8993166432079788
thorax -7.329393416412572 0.40683049372840546 0.43467318887152717
lowerneck -13.344745550315272 -1.3820116188306826 0.25340261745880405
upperneck 19.049662313597896 -1.3602586238008219 -2.3973911927183456
head 8.201059427305418 -0.7917679515917577 -1.0231650424177412
rclavicle -4.618356746681099E-16 -2.8178691563334216E-16
rhumerus -10.835736384803294 -6.133219112576633 -66.70475714859539
rradius 43.830179421413234
rwrist 12.452412305717747
rhand -23.91567651262066 -7.048818041461397
rfingers 7.12502000000013
rthumb 2.7866554996027704 -37.170695326793194
lclavicle -9.853376833637991E-16 -7.925939634604013E-16
lhumerus -12.198972581190581 -4.1490437852435615 68.55429122717521
lradius 43.83381326205341
lwrist -5.203339918810555
lhand -33.38554216135866 -11.137979212646123
lfingers 7.125020000000129
lthumb -6.6755103823807165 17.930576200350032
rfemur 13.163799282961591 7.334738303793451 37.0028596740623
rtibia 39.86886180220704
rfoot -11.900487668113492 -0.7407360269583059
rtoes 8.755204028252788
lfemur -27.284466466814628 -4.042685712067012 -13.330909082736245
ltibia 19.073352498918375
lfoot -8.254141496503388 6.129082924080256
ltoes 1.561711240651766
92
root 0 0 0 -1.1526815595308861 -2.855064571202595 -0.8622200097090411
lowerback 10.954322114085539 0.5656673605588504 0.4733745350549745
upperback -1.1334847740305762 0.8824918333186843 0.9046819328931254
thorax -7.313882517651378 0.40632742801430916 0.4393179201211538
lowerneck -13.370533275339836 -1.3930915360827218 0.2378997298934858
upperneck 19.050173689124723 -1.3777549515101835 -2.376146316407312
head 8.205688744856346 -0.799011570953198 -1.015139461741615
rclavicle -4.61043983780741E-16 -2.6756007501728936E-16
rhumerus -11.101824125046058 -6.311860218031489 -66.86828583709766
rradius 43.578774260072564
rwrist 12.326671219579204
rhand -23.826323178799697 -6.615451499933785
rfingers 7.125020000000131
rthumb 2.876090636124136 -36.74469707192481
lclavicle -9.845626612799232E-16 -7.922649697814974E-16
lhumerus -12.394563396447618 -4.10295272660908 68.69394853157733
lradius 43.67627740222966
lwrist -5.093831487582512
lhand -33.31866050996052 -10.77767819467875
lfingers 7.12502000000013
lthumb -6.611600234303983 18.29609923843641
rfemur 12.197900016981993 6.945328446328128 36.46485185582664
rtibia 41.988600408040945
rfoot -10.876010545847576 -0.6666930713582104
rtoes 9.106174741806187
lfemur -22.3221140217887 -4.6404724603244185 -15.745910847809135
ltibia 14.575178547230191
lfoot -10.512688726250612 6.491593016084881
ltoes 1.3193227299135373
93
root 0 0 0 -1.161985851233575 -2.851891263071645 -0.8723652897870495
lowerback 10.95048952318377 0.5643530261469516 0.476040325659251
upperback -1.1206060036549772 0.8817542377147408 0.9103365837956352
thorax -7.29756063855931 0.4057688725815955 0.44432955886219405
lowerneck -13.397728708111883 -1.4048369475506484 0.2215096123240689
upperneck 19.050717395614335 -1.3963567751848953 -2.353632635148539
head 8.21056261221803 -0.8067232311315966 -1.0066211286548843
rclavicle -4.619877445565911E-16 -2.522885725333393E-16
rhumerus -11.385559941598629 -6.502509122769876 -67.04259187130769
rradius 43.30975882888195
rwrist 12.192418520064235
rhand -23.730915037247183 -6.152153597147533
rfingers 7.1250200000001325
rthumb 2.9720796132890914 -36.28902690130294
lclavicle -9.858297638687414E-16 -7.922885846989342E-16
lhumerus -12.58114938255633 -4.05908493683577 68.82783187691163
lradius 43.52545526805285
lwrist -4.988232854758325
lhand -33.254606168920446 -10.430926658218434
lfingers 7.125020000000131
lthumb -6.550250145633202 18.64619244310815
rfemur 10.801968848832573 6.460703773921167 35.7198554065994
rtibia 44.521157964969056
rfoot -9.575737835656831 -0.624875121869195
rtoes 9.505229120470773
lfemur -16.89573871596578 -5.074981931555995 -18.29501267798899
ltibia 11.117396079692739
lfoot -12.469715258197557 6.3951013806966195
ltoes 0.935779458729284
94
root 0 0 0 -1.1705605213417067 -2.848876595636365 -0.881727348975397
lowerback 10.946966528765953 0.5631232146472059 0.4785900549198361
upperback -1.1086742038526878 0.8811464824832618 0.9155426760161998
thorax -7.2825258739918475 0.4052338930853916 0.44901261137589327
lowerneck -13.42271811250332 -1.415694718965749 0.20639699413432017
upperneck 19.051133771511655 -1.4136229572580494 -2.3328753871899472
head 8.215025661116915 -0.8138748889619207 -0.9987461833965481
rclavicle -4.636438635457834E-16 -2.3748620144603236E-16
rhumerus -11.65514849287675 -6.683520876449345 -67.20813214757291
rradius 43.053724950030556
rwrist 12.064853052160817
rhand -23.640228273228733 -5.710937159299114
rfingers 7.125020000000133
rthumb 3.0636596568053225 -35.85533444561815
lclavicle -9.885368674856564E-16 -7.924239082777844E-16
lhumerus -12.744324474913789 -4.020782924249219 68.94535668717135
lradius 43.39314820186191
lwrist -4.894996733886799
lhand -33.19834610651831 -10.124886839915359
lfingers 7.125020000000132
lthumb -6.496265699160663 18.952481207201608
rfemur 8.784597555587265 5.835233743032318 34.67130173642253
rtibia 47.66300925493474
rfoot -7.880575570485448 -0.6321787789434907
rtoes 9.958894685094787
lfemur -11.356991659420522 -5.385158224653012 -20.797759481853213
ltibia 8.570978360776731
lfoot -14.031821638490694 5.9270873706415355
ltoes 0.4784938127913918
95
root 0 0 0 -1.1773221261434936 -2.8464051259509846 -0.8891587753432293
lowerback 10.94416692640623 0.5621133159562168 0.48055990800181075
upperback -1.0991610520819313 0.8807035712411845 0.9196713521470978
thorax -7.270578068522992 0.4047943955711045 0.45279140604242085
lowerneck -13.442414073859656 -1.424313327943881 0.194384782598217
upperneck 19.05135092692038 -1.4274239406796685 -2.316481336399439
head 8.21853448569123 -0.8195724950969207 -0.9924872258976987
rclavicle -4.649870157375208E-16 -2.2452445804268476E-16
rhumerus -11.881555707003464 -6.835312977660795 -67.34705028444495
rradius 42.83886099177954
rwrist 11.957892414121087
rhand -23.564152734319453 -5.339734324103068
rfingers 7.125020000000134
rthumb 3.140754935449511 -35.49124586081382
lclavicle -9.918335715372114E-16 -7.925455478592554E-16
lhumerus -12.865365485594744 -3.992414493786945 69.03291325328713
lradius 43.29450962603242
lwrist -4.825022522049098
lhand -33.1563401896235 -9.895074611290612
lfingers 7.125020000000132
lthumb -6.4558958321966 19.179324947621144
rfemur 5.923551846654597 5.017757914473389 33.210859790892016
rtibia 51.6185892870183
rfoot -5.679158443103835 -0.7133642142238195
rtoes 10.461096047811294
lfemur -6.100168798891498 -5.571226887870604 -23.06445436741685
ltibia 7.023179077074108
lfoot -15.084309453412063 5.134501184458873
ltoes -0.00643675663300769
